<svg width="120" height="100" viewBox="0 0 120 100" fill="none" xmlns="http://www.w3.org/2000/svg">
<g id="Frame 1">
<rect width="120" height="100" fill="white"/>
<g id="Group 3">
<g id="Group 1">
<path id="Rectangle 1" d="M33 50H108V50C108 58.2843 101.284 65 93 65H48C39.7157 65 33 58.2843 33 50V50Z" fill="#C4C4C4"/>
<ellipse id="Ellipse 3" cx="91" cy="50.75" rx="17" ry="13.75" fill="#C4C4C4"/>
<ellipse id="Ellipse 1" cx="50" cy="50.75" rx="17" ry="13.75" fill="#C4C4C4"/>
<circle id="Ellipse 2" cx="66.5" cy="41.5" r="22.5" fill="#C4C4C4"/>
</g>
<g id="Group 2">
<path id="Rectangle 1_2" d="M13 45H88V45C88 53.2843 81.2843 60 73 60H28C19.7157 60 13 53.2843 13 45V45Z" fill="#F2F2F2"/>
<ellipse id="Ellipse 3_2" cx="71" cy="45.75" rx="17" ry="13.75" fill="#F2F2F2"/>
<ellipse id="Ellipse 1_2" cx="30" cy="45.75" rx="17" ry="13.75" fill="#F2F2F2"/>
<circle id="Ellipse 2_2" cx="46.5" cy="36.5" r="22.5" fill="#F2F2F2"/>
</g>
</g>
<g id="Group 4">
<rect id="Rectangle 2" x="54.4318" y="67.7765" width="2" height="8" rx="0.25" transform="rotate(-15 54.4318 67.7765)" fill="#A8DDFB"/>
<rect id="Rectangle 16" x="64.4318" y="88.7765" width="2" height="8" rx="0.25" transform="rotate(-15 64.4318 88.7765)" fill="#A8DDFB"/>
<path id="Rectangle 17" d="M77.4966 88.0179C77.4608 87.8846 77.54 87.7475 77.6733 87.7117L79.1222 87.3235C79.2556 87.2878 79.3927 87.3669 79.4284 87.5003L81.3696 94.7447C81.4053 94.8781 81.3261 95.0152 81.1928 95.0509L79.7439 95.4392C79.6105 95.4749 79.4734 95.3957 79.4377 95.2624L77.4966 88.0179Z" fill="#A8DDFB"/>
<rect id="Rectangle 18" x="45.4318" y="88.7765" width="2" height="8" rx="0.25" transform="rotate(-15 45.4318 88.7765)" fill="#A8DDFB"/>
<rect id="Rectangle 19" x="24.4318" y="67.5176" width="2" height="8" rx="0.25" transform="rotate(-15 24.4318 67.5176)" fill="#A8DDFB"/>
<rect id="Rectangle 20" x="82.4318" y="78.7765" width="2" height="8" rx="0.25" transform="rotate(-15 82.4318 78.7765)" fill="#A8DDFB"/>
<rect id="Rectangle 22" x="88.4319" y="69.7765" width="2" height="8" rx="0.25" transform="rotate(-15 88.4319 69.7765)" fill="#A8DDFB"/>
<path id="Rectangle 10" d="M24.0647 82.0042C24.029 81.8708 24.1081 81.7337 24.2415 81.698L25.6904 81.3098C25.8237 81.274 25.9608 81.3532 25.9965 81.4865L27.9377 88.731C27.9734 88.8643 27.8943 89.0014 27.7609 89.0372L26.312 89.4254C26.1787 89.4611 26.0416 89.382 26.0058 89.2486L24.0647 82.0042Z" fill="#A8DDFB"/>
<rect id="Rectangle 11" x="42.4318" y="67.7765" width="2" height="8" rx="0.25" transform="rotate(-15 42.4318 67.7765)" fill="#A8DDFB"/>
<rect id="Rectangle 12" x="35.4318" y="85.7765" width="2" height="8" rx="0.25" transform="rotate(-15 35.4318 85.7765)" fill="#A8DDFB"/>
<rect id="Rectangle 13" x="49" y="78.5176" width="2" height="8" rx="0.25" transform="rotate(-15 49 78.5176)" fill="#A8DDFB"/>
<rect id="Rectangle 14" x="38" y="76.5176" width="2" height="8" rx="0.25" transform="rotate(-15 38 76.5176)" fill="#A8DDFB"/>
<rect id="Rectangle 15" x="33.4318" y="64.5176" width="2" height="8" rx="0.25" transform="rotate(-15 33.4318 64.5176)" fill="#A8DDFB"/>
<rect id="Rectangle 3" x="64" y="62.5176" width="2" height="8" rx="0.25" transform="rotate(-15 64 62.5176)" fill="#A8DDFB"/>
<rect id="Rectangle 21" x="54.4318" y="88.5176" width="2" height="8" rx="0.25" transform="rotate(-15 54.4318 88.5176)" fill="#A8DDFB"/>
<rect id="Rectangle 5" x="62" y="75.5176" width="2" height="8" rx="0.25" transform="rotate(-15 62 75.5176)" fill="#A8DDFB"/>
<rect id="Rectangle 6" x="70.4318" y="78.7765" width="2" height="8" rx="0.25" transform="rotate(-15 70.4318 78.7765)" fill="#A8DDFB"/>
<path id="Rectangle 7" d="M75.1018 72.0179C75.0661 71.8846 75.1452 71.7475 75.2786 71.7118L76.7275 71.3235C76.8608 71.2878 76.9979 71.3669 77.0336 71.5003L78.9748 78.7447C79.0105 78.8781 78.9314 79.0152 78.798 79.0509L77.3491 79.4392C77.2158 79.4749 77.0787 79.3957 77.0429 79.2624L75.1018 72.0179Z" fill="#A8DDFB"/>
<rect id="Rectangle 8" x="78.4318" y="62.5176" width="2" height="8" rx="0.25" transform="rotate(-15 78.4318 62.5176)" fill="#A8DDFB"/>
<rect id="Rectangle 9" x="84.4318" y="57.5176" width="2" height="8" rx="0.25" transform="rotate(-15 84.4318 57.5176)" fill="#A8DDFB"/>
</g>
</g>
</svg>
